<svg xmlns="http://www.w3.org/2000/svg" width="420mm" height="297mm" viewBox="0 0 420 297">
  <defs><pattern id="demo-hatch" width="3" height="3" patternTransform="rotate(45)" patternUnits="userSpaceOnUse"><path d="M0 0V3" stroke="#ef4444" stroke-width="0.35"/></pattern><marker id="dim-arrow" markerWidth="4" markerHeight="4" refX="2" refY="2" orient="auto-start-reverse"><path d="M4 0L0 2L4 4" fill="none" stroke="#334155" stroke-width="0.55"/></marker></defs>
  <rect width="420" height="297" fill="white"/><rect x="7" y="7" width="406" height="283" fill="none" stroke="#111827" stroke-width="0.35"/>
  <text x="14" y="15" font-family="Arial,sans-serif" font-size="3.2" font-weight="700">CONSTRUCTFLOW · Kitchen Extension Proof · 4.00 × 2.50 m</text>
  <text x="14" y="21" font-family="Arial,sans-serif" font-size="2.4" fill="#475569">CF-KITCHEN-PROOF-001 · SCOPE GF · Ground Floor · GENERATED FROM PROJECT MODEL</text>
  <rect x="15" y="28" width="258" height="215" fill="none" stroke="#94a3b8" stroke-width="0.25"/><text x="18" y="35" font-size="2.8" font-family="Arial,sans-serif" font-weight="700">GROUND FLOOR PLAN · GF</text><path d="M124,148 L124,123" fill="none" stroke="#94a3b8" stroke-opacity="0.6" stroke-width="1.5"/><text x="125.2" y="134.3" font-size="2.3" fill="#94a3b8" font-family="Arial,sans-serif">W1</text><path d="M124,148 L139.5,148" fill="none" stroke="#0f172a" stroke-opacity="1" stroke-width="1"/><path d="M148.5,148 L164,148" fill="none" stroke="#0f172a" stroke-opacity="1" stroke-width="1"/><text x="145.2" y="146.8" font-size="2.3" fill="#0f172a" font-family="Arial,sans-serif">W1</text><path d="M164,148 L164,123" fill="none" stroke="#0f172a" stroke-opacity="1" stroke-width="1"/><text x="165.2" y="134.3" font-size="2.3" fill="#0f172a" font-family="Arial,sans-serif">W1</text><path d="M164,123 L150,123" fill="none" stroke="#0f172a" stroke-opacity="1" stroke-width="1"/><path d="M138,123 L124,123" fill="none" stroke="#0f172a" stroke-opacity="1" stroke-width="1"/><text x="145.2" y="121.8" font-size="2.3" fill="#0f172a" font-family="Arial,sans-serif">W1</text><rect x="123" y="147" width="2" height="2" fill="white" fill-opacity="1" stroke="#0f172a" stroke-opacity="1" stroke-width="0.7"/><text x="126" y="146" font-size="2.2" fill="#0f172a">C1</text><rect x="163" y="147" width="2" height="2" fill="white" fill-opacity="1" stroke="#0f172a" stroke-opacity="1" stroke-width="0.7"/><text x="166" y="146" font-size="2.2" fill="#0f172a">C1</text><rect x="163" y="122" width="2" height="2" fill="white" fill-opacity="1" stroke="#0f172a" stroke-opacity="1" stroke-width="0.7"/><text x="166" y="121" font-size="2.2" fill="#0f172a">C1</text><rect x="123" y="122" width="2" height="2" fill="white" fill-opacity="1" stroke="#0f172a" stroke-opacity="1" stroke-width="0.7"/><text x="126" y="121" font-size="2.2" fill="#0f172a">C1</text><path d="M139.5,148 L148.5,148" stroke="#0f172a" stroke-width="0.7"/><text x="145" y="147" font-size="2.1" fill="#0f172a">D1</text><path d="M150,123 L138,123" stroke="#0f172a" stroke-width="0.7"/><path d="M150,122.1 L138,122.1" stroke="#0f172a" stroke-width="0.35"/><text x="145" y="122" font-size="2.1" fill="#0f172a">W1</text><path d="M124,150.8 L164,150.8" fill="none" stroke="#334155" stroke-width="0.25" marker-start="url(#dim-arrow)" marker-end="url(#dim-arrow)"/><text x="144" y="149.60000000000002" text-anchor="middle" font-size="2.4" fill="#334155">4.00 m</text><path d="M121.2,148 L121.2,123" fill="none" stroke="#334155" stroke-width="0.25" marker-start="url(#dim-arrow)" marker-end="url(#dim-arrow)"/><text x="120" y="135.5" text-anchor="end" font-size="2.4" fill="#334155" transform="rotate(-90 120 135.5)">2.50 m</text><text x="18" y="239" font-size="2.4" fill="#475569">Envelope extents 4.00 m × 2.50 m · Phases: Existing / Demolition / New</text>
  <rect x="275" y="254" width="138" height="36" fill="none" stroke="#111827" stroke-width="0.35"/>
  <path d="M275 267H413 M275 278H413 M374 254V290" fill="none" stroke="#111827" stroke-width="0.25"/>
  <text x="279" y="261" font-family="Arial,sans-serif" font-size="3.3" font-weight="700">PHASED FLOOR PLAN</text>
  <text x="279" y="274" font-family="Arial,sans-serif" font-size="2.7">SCALE 1:100 · A3 LANDSCAPE</text>
  <text x="279" y="285" font-family="Arial,sans-serif" font-size="2.2">Kitchen Extension Proof · 4.00 × 2.50 m · CF-KITCHEN-PROOF-001</text>
  <text x="379" y="263" font-family="Arial,sans-serif" font-size="5" font-weight="700">A-02</text>
  <text x="379" y="285" font-family="Arial,sans-serif" font-size="2.5">CF · v2</text>
  <text x="285" y="37" font-family="Arial,sans-serif" font-size="3" font-weight="700">GENERAL NOTES</text>
  <text x="285" y="44" font-family="Arial,sans-serif" font-size="2.5">A-02 · Architectural floor plan</text>
  <text x="285" y="50" font-family="Arial,sans-serif" font-size="2.4">Ground level: GF</text>
  <text x="285" y="56" font-family="Arial,sans-serif" font-size="2.4">Wall objects: 4</text>
  <text x="285" y="62" font-family="Arial,sans-serif" font-size="2.4">Hosted openings: 2</text>
  <text x="285" y="74" font-family="Arial,sans-serif" font-size="2.5" fill="#64748b">Phase legend</text>
  <path d="M285 81h12" stroke="#94a3b8" stroke-width="0.35" stroke-opacity="0.6"/><text x="300" y="82" font-size="2.5">Existing · 1px · 40% fill</text>
  <path d="M285 88h12" stroke="#ef4444" stroke-width="0.525" stroke-dasharray="1.5,0.75"/><text x="300" y="89" font-size="2.5">Demolition · dashed / hatch</text>
  <path d="M285 95h12" stroke="#0f172a" stroke-width="0.7"/><text x="300" y="96" font-size="2.5">New · 2px</text>
  </svg>
